<svg version="1.1" id="Layer_1" xmlns="http://www.w3.org/2000/svg" xmlns:xlink="http://www.w3.org/1999/xlink" x="0px" y="0px"
	 viewBox="0 0 277.2 60.5" style="enable-background:new 0 0 277.2 60.5;" xml:space="preserve">
<style type="text/css">
	.st0{fill:#231F20;}
	.st1{fill-rule:evenodd;clip-rule:evenodd;fill:#231F20;}
</style>
<g>
	<g>
		<path class="st0" d="M86.7,39.2c3.2,0,5.8-1.3,7.9-3.8l4.2,4.3c-3.3,3.7-7.2,5.6-11.7,5.6s-8.2-1.4-11.1-4.3
			c-2.9-2.8-4.4-6.4-4.4-10.8c0-4.3,1.5-7.9,4.4-10.8c3-2.9,6.6-4.3,10.9-4.3c4.8,0,8.8,1.8,12,5.5l-4.1,4.6
			c-2.1-2.6-4.6-3.8-7.7-3.8c-2.5,0-4.5,0.8-6.3,2.4c-1.7,1.6-2.6,3.8-2.6,6.5s0.8,4.9,2.5,6.5C82.4,38.3,84.4,39.2,86.7,39.2z"/>
		<path class="st0" d="M103.9,44.9V15.7h6.5v23.4h12.4v5.8H103.9z"/>
		<path class="st0" d="M148.4,44.9l-2.7-6.3h-12.2l-2.7,6.3h-6.9l12.6-29.2h6.3l12.6,29.2H148.4z M139.6,24.4l-3.7,8.5h7.3
			L139.6,24.4z"/>
		<path class="st0" d="M165.3,21.6c-0.6,0.5-0.9,1.2-0.9,2c0,0.8,0.4,1.5,1.1,2c0.8,0.5,2.5,1.1,5.3,1.8c2.8,0.7,4.9,1.7,6.5,3.1
			s2.3,3.4,2.3,6c0,2.6-1,4.7-2.9,6.4c-2,1.6-4.5,2.4-7.7,2.4c-4.6,0-8.8-1.7-12.5-5.1l3.9-4.8c3.1,2.8,6.1,4.1,8.7,4.1
			c1.2,0,2.1-0.3,2.8-0.8c0.7-0.5,1-1.2,1-2.1s-0.4-1.6-1.1-2.1c-0.7-0.5-2.2-1-4.3-1.6c-3.4-0.8-5.9-1.9-7.5-3.2
			c-1.6-1.3-2.4-3.3-2.4-6.1c0-2.8,1-4.9,3-6.4c2-1.5,4.5-2.3,7.5-2.3c1.9,0,3.9,0.3,5.8,1c1.9,0.7,3.6,1.6,5.1,2.8l-3.3,4.8
			c-2.5-1.9-5.2-2.9-7.9-2.9C166.8,20.8,166,21,165.3,21.6z"/>
		<path class="st0" d="M192,21.6c-0.6,0.5-0.9,1.2-0.9,2c0,0.8,0.4,1.5,1.1,2c0.8,0.5,2.5,1.1,5.3,1.8c2.8,0.7,4.9,1.7,6.5,3.1
			s2.3,3.4,2.3,6c0,2.6-1,4.7-2.9,6.4c-2,1.6-4.5,2.4-7.7,2.4c-4.6,0-8.8-1.7-12.5-5.1l3.9-4.8c3.1,2.8,6.1,4.1,8.7,4.1
			c1.2,0,2.1-0.3,2.8-0.8c0.7-0.5,1-1.2,1-2.1s-0.4-1.6-1.1-2.1c-0.7-0.5-2.2-1-4.3-1.6c-3.4-0.8-5.9-1.9-7.5-3.2
			c-1.6-1.3-2.4-3.3-2.4-6.1c0-2.8,1-4.9,3-6.4c2-1.5,4.5-2.3,7.5-2.3c1.9,0,3.9,0.3,5.8,1c1.9,0.7,3.6,1.6,5.1,2.8l-3.3,4.8
			c-2.5-1.9-5.2-2.9-7.9-2.9C193.5,20.8,192.6,21,192,21.6z"/>
		<path class="st0" d="M211.8,15.7h6.5v29.2h-6.5V15.7z"/>
		<path class="st0" d="M238.9,39.2c3.2,0,5.8-1.3,7.9-3.8l4.2,4.3c-3.3,3.7-7.2,5.6-11.7,5.6s-8.2-1.4-11.1-4.3
			c-2.9-2.8-4.4-6.4-4.4-10.8c0-4.3,1.5-7.9,4.4-10.8c3-2.9,6.6-4.3,10.9-4.3c4.8,0,8.8,1.8,12,5.5l-4.1,4.6
			c-2.1-2.6-4.6-3.8-7.7-3.8c-2.5,0-4.5,0.8-6.3,2.4c-1.7,1.6-2.6,3.8-2.6,6.5s0.8,4.9,2.5,6.5C234.6,38.3,236.6,39.2,238.9,39.2z"
			/>
		<path class="st0" d="M262.9,21.6c-0.6,0.5-0.9,1.2-0.9,2c0,0.8,0.4,1.5,1.1,2c0.8,0.5,2.5,1.1,5.3,1.8c2.8,0.7,4.9,1.7,6.5,3.1
			s2.3,3.4,2.3,6c0,2.6-1,4.7-2.9,6.4c-2,1.6-4.5,2.4-7.7,2.4c-4.6,0-8.8-1.7-12.5-5.1l3.9-4.8c3.1,2.8,6.1,4.1,8.7,4.1
			c1.2,0,2.1-0.3,2.8-0.8c0.7-0.5,1-1.2,1-2.1s-0.4-1.6-1.1-2.1c-0.7-0.5-2.2-1-4.3-1.6c-3.4-0.8-5.9-1.9-7.5-3.2
			c-1.6-1.3-2.4-3.3-2.4-6.1c0-2.8,1-4.9,3-6.4c2-1.5,4.5-2.3,7.5-2.3c1.9,0,3.9,0.3,5.8,1c1.9,0.7,3.6,1.6,5.1,2.8l-3.3,4.8
			c-2.5-1.9-5.2-2.9-7.9-2.9C264.4,20.8,263.5,21,262.9,21.6z"/>
	</g>
	<g id="XMLID_30_">
		<g id="XMLID_34_">
			<g id="XMLID_47_">
				<path id="XMLID_50_" class="st1" d="M30.1,35c0-0.5-0.1-0.9,0-1.3c0-0.5,0-0.8,0-1.4c0-0.7,0-1.3-0.4-1.5
					c-0.4-0.1-1,0.1-1.3-0.1c-0.3-0.2-0.2-0.8-0.2-1.3c0-1.3,0-2.7,0-3.9c0.1-1.8,0.1-3.4,0.1-5c0-1.6,0.2-3.2,0.2-5
					c0-1.3,0-2.5,0-3.8c0-0.7,0.1-1.4-0.6-1.3c-0.5,0.1-0.7,0.4-1,0.7c-0.7,0.7-1.3,1.5-2,2.1c-0.7,0.6-1.4,1.4-2,2.1
					c-0.2,0.2-0.4,0.6-0.4,0.9c-0.1,0.5,0,1.2-0.1,1.8c0,0.6,0,1.2,0,1.8c0,2.4-0.1,4.8-0.2,7.2c0,0.6,0,1.2,0,1.8
					c0,0.4,0.1,1.4-0.1,1.7c-0.1,0.2-0.7,0.2-1.1,0.2c-0.9,0-1.5,0-2.4,0c-0.4,0-1,0-1-0.2c0-0.2,0.4-0.6,0.5-0.8
					c0.5-0.6,0.7-0.9,1.1-1.4c0.2-0.2,0.4-0.4,0.6-0.7c0.2-0.5,0.1-1.4,0.1-2c0.1-1.3,0.1-2.5,0.1-3.8c0-0.6,0-1.4-0.5-1.4
					c-0.4,0-0.7,0.4-1,0.6c-0.8,0.7-1.4,1.7-2.1,2.5c-0.7,0.8-1.4,1.7-2.1,2.5c-1.2,1.5-2.3,2.8-3.4,4.3c-0.2,0.3-0.4,0.6-0.7,0.9
					c-0.2,0.3-0.5,0.6-0.7,0.8c-0.4,0.6-0.9,1.2-1.2,1.8c-0.4,1,0.1,1.5,0.7,1.9c0.3,0.2,0.5,0.4,0.8,0.4c0.4,0.1,1,0,1.5,0
					c0.5,0,1,0,1.5,0c2.1,0,3.9-0.2,6.1-0.1c0.4,0,0.9,0,1.5,0c0.4,0,1.2-0.1,1.5,0.1c0.2,0.2,0.1,0.7,0.1,1.2c0,0.4,0,0.8,0,1.1
					c-0.1,1.9,0,3.7,0,5.6c0,0.4-0.1,0.8,0.1,1.1c0.2,0.5,1.2,0.3,1.7,0.3c1,0,2,0.1,3,0c0.5,0,1.1-0.1,1.3-0.3
					c0.2-0.2,0.1-1,0.1-1.4c0-1.9,0-3.6,0.1-5.4c0-0.5-0.1-1.8,0.1-2.1c0.3-0.4,1.4,0,1.8-0.3C30.1,36,30.1,35.4,30.1,35z"/>
				<path id="XMLID_49_" class="st1" d="M10.6,25.1c0.3,0,0.6-0.3,0.7-0.5c0.4-0.5,0.7-0.8,1.1-1.3c0.2-0.2,0.5-0.5,0.7-0.8
					c0.2-0.3,0.6-0.6,0.9-0.9c0.6-0.6,1-0.9,1.5-1.5c0.3-0.3,0.6-0.6,0.7-0.9c0.3-0.7,0.2-2.3,0.1-3.3c0-0.5-0.2-1.1-0.4-1.3
					c-0.1-0.1-0.3-0.2-0.4-0.1c-0.6,0.4-0.8,0.6-1.3,1c-0.2,0.2-0.4,0.4-0.6,0.6c-0.4,0.4-0.8,0.7-1.3,1.1c-0.6,0.6-1.2,1.2-1.8,1.8
					c-0.5,0.5-0.9,0.8-0.8,1.6c0,0.9,0.1,1.7,0.2,2.5C10,23.9,10,25.1,10.6,25.1z"/>
			</g>
			<path id="XMLID_35_" class="st1" d="M43.8,20.4c-1.3,0.3-2.7,0.6-4,0.7c-0.4,0-0.8,0.1-1.2,0.1c-1.3,0.1-2.7,0.1-4-0.2
				c-0.6-0.1-1.3-0.3-1.9-0.1c-0.4,0.1-0.6,0.6-0.8,1c-0.4,0.9-0.1,2-0.1,3c0,1.2,0,2.4,0,3.6c0,0.7,0,1.4,0,2.1
				c0,0.5-0.1,1.2,0.2,1.7c0.2,0.3,0.5,0.3,0.8,0.3c0.2,0,0.1,0,0.2,0c0.6-0.1,1.2-0.5,1.5-1c0.3-0.5,0.5-0.9,0.6-1.4
				c0.1-0.5,0.3-1.1,0.6-1.5c0.4-0.6,0.9-1,1.6-1.2c0.5-0.1,1.1-0.2,1.7-0.3c0.8-0.1,1.3-0.2,2.2-0.3c0.7-0.1,1.4-0.3,2.1-0.4
				c0.3-0.1,0.6,0,0.6,0.2c0,0.4-0.3,0.7-0.5,1.1c-0.3,0.5-0.6,0.9-0.8,1.4c-0.7,1.2-1.3,2.3-2,3.4c-0.3,0.5-0.6,1-0.9,1.5
				c-0.8,1.5-1.8,2.8-2.7,4.3c-1.1,2-2.3,4-3.6,5.9c-1.1,1.6-2.4,3.1-3.3,4.6c-0.2,0.4-0.8,0.8-0.6,1.3c0.2,0.5,0.8,0.3,1.1,0.3
				c0.6,0,1.1,0,1.6,0c1.5,0,3.1,0.1,4.6,0c0.3,0,0.5,0,0.8-0.1c0.6-0.1,1-0.6,1.2-1.2c0.2-0.5,0.2-1,0.3-1.5
				c0.2-0.6,0.4-1.1,0.5-1.7c0.6-1.8,1.4-3.8,2.3-5.4c0.6-1.2,1.3-2.4,1.9-3.5c2.2-4,4.6-8,6.9-12c0.3-0.6,0.7-1.1,1-1.7
				c0.3-0.5,0.6-1.2,0.8-1.8c0.2-0.5,0-1.2-0.5-1.4c-0.5-0.2-0.9-0.2-1.4-0.3c-0.9-0.1-1.9,0-2.8,0C46.5,19.8,45.2,20,43.8,20.4z"/>
		</g>
		<path id="XMLID_31_" class="st0" d="M30.2,60.5C13.6,60.5,0,46.9,0,30.2C0,13.6,13.6,0,30.2,0c16.7,0,30.2,13.6,30.2,30.2
			C60.5,46.9,46.9,60.5,30.2,60.5z M30.2,2.4C14.9,2.4,2.4,14.9,2.4,30.2C2.4,45.6,14.9,58,30.2,58C45.6,58,58,45.6,58,30.2
			C58,14.9,45.6,2.4,30.2,2.4z"/>
	</g>
</g>
</svg>
