
<svg width="152px" height="43px" viewBox="45 96 152 43" version="1.1" xmlns="http://www.w3.org/2000/svg" xmlns:xlink="http://www.w3.org/1999/xlink">
    <defs>
        <polygon id="path-1" points="7.00154499e-05 0.0740095881 42.5976936 0.0740095881 42.5976936 42.6065972 7.00154499e-05 42.6065972 7.00154499e-05 0.0740095881"></polygon>
    </defs>
    <g id="Horizontal-Logo" stroke="none" fill="none" transform="translate(45.000000, 96.000000)" stroke-width="1" fill-rule="evenodd">
        <g>
            <g id="Group-3" transform="translate(0.049010, 0.000000)">
                <mask id="mask-2" fill="white">
                    <use xlink:href="#path-1"></use>
                </mask>
                <g id="Clip-2"></g>
                <path d="M21.2962868,1.79559503 C10.5287264,1.79670795 1.74829567,10.5640618 1.72130721,21.2962868 C1.69431875,32.1105901 10.6010666,40.9035412 21.3168759,40.887682 C31.8977429,40.8718228 40.8401044,32.2216044 40.8387133,21.3355174 C40.8376004,10.5790863 32.0454839,1.7944821 21.2962868,1.79559503 M21.3015732,0.0738982955 C33.0326494,0.0805758523 42.6004754,9.67984201 42.597693,21.4198216 C42.5949107,32.7129613 33.2093264,42.609657 21.2745847,42.6065964 C9.59581609,42.6035359 -0.0351684659,33.0145643 0.00016693892,21.2709677 C0.0352241122,9.60305011 9.59832017,0.0669425071 21.3015732,0.0738982955" id="Fill-1" fill="#020302" mask="url(#mask-2)"></path>
            </g>
            <path d="M83.9292279,17.8215212 C83.3260735,19.22975 82.8512359,20.3377043 82.3386198,21.5342428 L85.540028,21.5342428 C85.0013576,20.2934122 84.5252174,19.1958796 83.9292279,17.8215212 L83.9292279,17.8215212 Z M81.0430754,24.5728123 C80.563027,25.6260528 80.1135923,26.6122037 79.6804414,27.5618788 L76.2438942,27.5618788 C76.4295303,27.0427492 76.5480769,26.6428174 76.7115669,26.2617749 C78.4037863,22.3301982 80.1285734,18.4116486 81.7817116,14.463788 C82.1523324,13.578597 82.6362889,13.1688949 83.5950829,13.3063307 C84.0152067,13.3662554 84.4750631,13.2320763 84.8717381,13.3447606 C85.2254237,13.4450693 85.6774638,13.692584 85.8116428,13.9967667 C87.7142498,18.3028723 89.5712619,22.62917 91.4302282,26.9554676 C91.4992717,27.1157009 91.4699608,27.3176208 91.5005745,27.6504631 C90.5469912,27.6504631 89.6481218,27.7155985 88.7674903,27.6165926 C88.4405103,27.5794654 88.0510002,27.2160095 87.8757858,26.8987998 C87.466735,26.1582095 87.1703687,25.3563919 86.8251507,24.5728123 L81.0430754,24.5728123 Z" id="Fill-4" fill="#222222"></path>
            <path d="M150.987363,14.8775936 C150.373787,15.7282628 149.853354,16.448661 149.30817,17.2048838 C148.616432,16.8609685 148.054313,16.4545232 147.429663,16.3014549 C146.570527,16.0910673 145.656025,15.9594937 144.783209,16.0259318 C144.419102,16.0539401 143.916908,16.6362512 143.82181,17.0466046 C143.750812,17.3527413 144.145533,17.963712 144.484889,18.1298074 C145.285404,18.5212715 146.177108,18.727751 147.031686,19.0117416 C147.569705,19.1902128 148.131172,19.3217864 148.638578,19.5647417 C150.59199,20.4994356 151.321508,21.7233311 151.182769,23.7340629 C151.054452,25.6014967 149.984276,26.942636 147.999599,27.4800035 C145.501002,28.1561097 141.801959,27.6956019 139.744981,25.1077699 C140.320127,24.3971419 140.909603,23.6689274 141.584407,22.8351935 C142.078785,23.1823655 142.484579,23.4878508 142.910565,23.7614198 C143.926678,24.4134258 144.999459,24.907804 146.252014,24.7912115 C146.963294,24.7254247 147.573613,24.4759559 147.715608,23.6845599 C147.853695,22.9159614 147.320887,22.5518542 146.720338,22.3180179 C146.102854,22.077668 145.45671,21.9096185 144.820988,21.7174689 C144.275804,21.5533275 143.711731,21.4399918 143.184134,21.2335124 C141.054204,20.4010811 140.264762,19.2579537 140.314917,17.1469132 C140.363117,15.1172921 141.288692,13.8041611 143.44207,13.2563718 C146.095689,12.5815684 148.606661,13.0251409 150.987363,14.8775936" id="Fill-6" fill="#222222"></path>
            <path d="M103.457818,14.864827 C102.951715,15.5936929 102.553737,16.1818661 102.13687,16.7570123 C102.031351,16.9022644 101.868512,17.0058298 101.714793,17.1432656 C100.995046,16.8123775 100.336526,16.4059321 99.6206873,16.209223 C98.9048486,16.0131653 98.1069391,15.8815916 97.3917517,16.0020923 C96.9553441,16.0756953 96.4127656,16.624136 96.290311,17.063149 C96.209543,17.3516991 96.7097834,18.0095673 97.0934312,18.1808736 C97.9949061,18.5827594 98.9771489,18.8087795 99.9346403,19.0758349 C102.732209,19.8581118 104.000396,21.6324019 103.593299,24.1655202 C103.277392,26.1319599 101.979243,27.2145114 100.193879,27.5636375 C97.7747482,28.0371723 94.7713519,27.865866 92.2121794,25.1796794 C92.7892797,24.4397405 93.3839665,23.6783069 94.0411833,22.8361054 C94.5518454,23.1858828 94.9654556,23.4789924 95.3881847,23.7564695 C96.444682,24.4495109 97.5689202,24.9302106 98.8709781,24.7764909 C99.5386166,24.6983283 100.066865,24.3856781 100.198439,23.6828664 C100.326104,23.0022008 99.88644,22.6133421 99.3256237,22.3769003 C98.846878,22.1756317 98.3440322,22.0290769 97.8457459,21.8760086 C97.1201368,21.6532453 96.3704276,21.4969202 95.6650105,21.2246539 C93.4946967,20.3857091 92.7619228,19.3096712 92.810123,17.1452197 C92.8550665,15.1006174 93.7532845,13.8265677 95.9268551,13.2624946 C98.5811253,12.57271 101.084933,13.0267042 103.457818,14.864827" id="Fill-9" fill="#222222"></path>
            <path d="M105.413705,25.1247702 C106.055941,24.3503095 106.653233,23.6299113 107.290258,22.8619641 C107.89211,23.2631986 108.359783,23.7041657 108.915388,23.9171587 C109.870925,24.2838714 110.866195,24.6017324 111.872538,24.760663 C112.57079,24.8707419 113.187623,24.4571317 113.340692,23.6924413 C113.491806,22.9355672 112.953136,22.5577815 112.355843,22.318083 C111.740965,22.0718709 111.096775,21.8999133 110.463007,21.7025528 C109.92108,21.533852 109.359612,21.4153054 108.833969,21.2042665 C106.724882,20.3588082 105.953027,19.2104699 106.022722,17.0903105 C106.08916,15.0873949 107.049257,13.7644936 109.194168,13.2355936 C111.800238,12.5933579 114.261056,13.0499575 116.581181,14.8398801 C116.021667,15.6592843 115.507097,16.4122503 114.956703,17.217976 C114.333356,16.9027203 113.857867,16.5522915 113.327665,16.4200665 C112.424236,16.1933951 111.484982,15.9947319 110.563967,16.0097131 C110.195951,16.0155753 109.606475,16.5802998 109.54134,16.9632963 C109.480113,17.3234955 109.880696,17.9735474 110.246106,18.1526699 C111.087005,18.5636747 112.034074,18.7538703 112.93099,19.0547961 C114.480562,19.5745772 116.018411,20.1275773 116.597465,21.8940511 C117.435758,24.4545263 116.161709,26.8860332 113.497668,27.5224067 C111.003631,28.1177449 107.756628,27.7373538 105.413705,25.1247702" id="Fill-11" fill="#222222"></path>
            <path d="M138.405926,15.7919001 C137.761737,16.5181606 137.165747,17.1890559 136.494852,17.9452786 C136.048022,17.5883363 135.67675,17.2437696 135.259883,16.9669439 C133.699238,15.93129 132.079318,15.7984137 130.432694,16.7572077 C128.913735,17.6417473 128.19008,19.2056499 128.436943,20.9962238 C128.689017,22.8206683 129.851686,24.157248 131.634443,24.603426 C132.977537,24.939525 134.163653,24.5050714 135.250113,23.7364729 C135.592074,23.4948203 135.900816,23.2069216 136.269483,22.9033903 C136.954057,23.6257426 137.596292,24.3038028 138.245042,24.9883766 C136.444046,27.7488176 132.829028,28.2262606 129.999543,27.3964347 C126.992239,26.5151519 125.085072,23.9032197 125.008212,20.6711979 C124.926793,17.2300912 126.799438,14.3758551 129.861456,13.3805852 C132.713738,12.4530561 136.621866,13.0366699 138.405926,15.7919001" id="Fill-13" fill="#222222"></path>
            <path d="M64.3465105,15.7637616 C63.6847342,16.4997924 63.0548743,17.1999986 62.3527139,17.9809729 C61.1105806,16.7492612 59.7433872,15.806751 58.0257649,16.2060314 C57.0591546,16.4307488 56.0300142,16.9290351 55.3200377,17.608398 C53.8636086,19.002297 53.9938796,21.854579 55.3897326,23.3435758 C57.2076635,25.2839613 59.1232975,25.1738824 62.2875785,22.883068 C62.9428413,23.5292119 63.6124338,24.1883828 64.2585777,24.8254076 C61.9996797,28.4677829 56.1407445,28.4586639 53.4167793,26.0747059 C50.2427281,23.2979809 50.0369,18.1047302 52.96995,15.1117556 C55.9661815,12.0536454 61.978185,12.3428469 64.3465105,15.7637616" id="Fill-15" fill="#222222"></path>
            <polygon id="Fill-17" fill="#222222" points="66.7412811 13.3900298 69.9270567 13.3900298 69.9270567 24.6754006 75.8289813 24.6754006 75.8289813 27.5654613 66.7412811 27.5654613"></polygon>
            <path d="M119.461341,13.3678186 L122.48037,13.3678186 L122.48037,27.5484609 L119.628088,27.5484609 C119.219037,26.7316622 119.050336,15.9107072 119.461341,13.3678186" id="Fill-19" fill="#222222"></path>
            <path d="M12.8542229,22.2537519 C13.7620924,22.2537519 14.6699619,22.26349 15.5775531,22.247909 C15.8596799,22.2431791 16.0138202,22.0481388 16.0252277,21.7651773 C16.0383046,21.4402029 16.0374699,21.114672 16.0444257,20.7894193 C16.0992373,18.145385 16.1715775,15.501629 16.1985659,12.8575947 C16.2057999,12.1366968 16.4222641,11.5596446 16.9194638,11.0502027 C17.8000666,10.148176 18.6595238,9.22528205 19.5326144,8.31574317 C19.6288825,8.21530158 19.7479656,8.1254328 19.873448,8.06728241 C20.1931361,7.91926323 20.3887328,8.01580957 20.4521696,8.35358265 C20.4816622,8.51133993 20.4719241,8.67772239 20.4691417,8.84020961 C20.3929063,13.0295418 20.3169491,17.2191523 20.2368184,21.4087627 C20.2217939,22.1989403 20.2137252,22.2092348 21.0169796,22.2473525 C21.3834106,22.2646029 21.6034917,22.4117874 21.6143427,22.786287 C21.6404965,23.6808014 21.6749972,24.575594 21.663868,25.4698302 C21.6571904,25.995966 21.5319862,26.0780443 20.9847048,26.1028069 C20.9034612,26.1064239 20.8216611,26.0986334 20.7404175,26.1030851 C20.215951,26.1309083 20.1107795,26.2305152 20.1013197,26.772232 C20.0771135,28.1347318 20.0606979,29.4972316 20.0467863,30.8600097 C20.0426128,31.266506 20.0593067,31.6732805 20.0634802,32.080055 C20.0673754,32.4331308 19.9343807,32.6765834 19.5415178,32.6838174 C18.4669876,32.7035718 17.3916227,32.7478106 16.3182055,32.7233263 C15.8274051,32.7119188 15.7325281,32.5394152 15.7322499,31.9840651 C15.7314152,30.7228415 15.7422662,29.461618 15.7481091,28.2003944 C15.7503349,27.7123763 15.7547866,27.2243582 15.7533955,26.7363401 C15.7517261,26.2160471 15.6952451,26.1386988 15.1571453,26.1292389 C14.1410437,26.1111539 13.1243857,26.1083715 12.1080059,26.1214484 C10.6436733,26.1406464 9.17961902,26.1923975 7.71528645,26.1993533 C7.4042236,26.2007444 7.05476479,26.1356382 6.78821898,25.9856714 C5.98941625,25.535771 5.82525964,24.9559365 6.35807303,24.2180665 C7.36944466,22.8177272 8.42115986,21.4443763 9.49986351,20.0946752 C10.6297618,18.681259 11.8097417,17.3076299 12.9716366,15.919811 C13.1149258,15.7486986 13.2598845,15.5639529 13.4429608,15.4457045 C13.6324365,15.3232826 13.9159544,15.1602389 14.0720423,15.2245104 C14.2300778,15.2896166 14.3611249,15.6087481 14.3678024,15.8207606 C14.3950691,16.6944076 14.2957405,17.5766798 14.3822705,18.4419798 C14.5113699,19.7329742 14.0472797,20.725426 13.1257769,21.5706935 C12.9735842,21.7103657 12.8823243,21.9165352 12.7626847,22.0920993 C12.7932902,22.145798 12.8236174,22.1997749 12.8542229,22.2537519" id="Fill-21" fill="#222222"></path>
            <path d="M31.1921494,18.746194 C30.9030668,18.746194 30.7439184,18.7250484 30.5922822,18.7495327 C29.4498635,18.9348349 28.3132877,19.1660453 27.1658608,19.3104475 C25.9694652,19.4606925 25.2307605,20.0494305 24.9611542,21.242209 C24.8821364,21.5916679 24.7463594,21.9678369 24.5215483,22.2343827 C24.2739223,22.5273605 23.9230723,22.7914022 23.5641536,22.9199452 C22.9345157,23.1453127 22.5872827,22.8626295 22.5714235,22.1907003 C22.560016,21.7032387 22.6075936,21.2143859 22.6000814,20.726646 C22.579214,19.3647027 22.5288541,18.0030375 22.522733,16.6410942 C22.5210636,16.2229122 22.5833875,15.7927662 22.6918978,15.3882176 C22.8095897,14.947777 23.1465281,14.7307565 23.6192435,14.7685959 C23.7814525,14.7816728 23.9470002,14.7788905 24.105314,14.8111654 C26.4082364,15.280542 28.6799968,15.016222 30.9342287,14.4989896 C32.6498044,14.105292 34.3759528,13.9030176 36.1349326,14.0457504 C36.2963069,14.0588273 36.4593505,14.0783035 36.6162731,14.1164212 C37.2765166,14.2769608 37.507727,14.6411659 37.2754036,15.2869413 C37.0978919,15.780524 36.84804,16.2535176 36.5867806,16.7103738 C34.4154617,20.5068431 32.2271707,24.293296 30.0589123,28.0911565 C28.9320746,30.0646528 28.1268726,32.1672485 27.6182653,34.3841973 C27.4056964,35.3104301 27.0974159,35.5591691 26.1308395,35.5641773 C24.6253287,35.5719677 23.1198179,35.5636208 21.6148635,35.5371888 C21.4228837,35.53385 21.1307406,35.4253397 21.0706426,35.2856675 C21.0044235,35.1315272 21.1009699,34.8502351 21.2150448,34.6849656 C21.8736188,33.7309097 22.5625201,32.7977211 23.2325016,31.8511774 C23.6670993,31.2371204 24.1156085,30.6300192 24.5073585,29.9886956 C26.6388903,26.4993939 28.7559541,23.0017453 30.8716266,19.5029837 C30.9926574,19.3029353 31.0574853,19.0689425 31.1921494,18.746194" id="Fill-23" fill="#222222"></path>
            <path d="M11.825566,13.1072421 C11.855615,13.9313639 11.5862869,14.5835386 10.9750122,15.1708854 C10.0262426,16.0829283 9.15676911,17.0770496 8.25362955,18.0363919 C8.17016009,18.1248696 8.09726342,18.2272588 8.00155178,18.2993207 C7.71386037,18.5166196 7.45900028,18.4459488 7.34103011,18.0998287 C7.26980284,17.8908768 7.23335451,17.6652311 7.21415653,17.4445935 C7.15378029,16.7576398 7.1167755,16.0687385 7.05556456,15.3820631 C7.01661215,14.9441267 7.15099798,14.5712964 7.46595607,14.283605 C8.58889854,13.2580436 9.71156278,12.2322039 10.8587114,11.2341874 C11.2880227,10.8608007 11.4744378,10.9261851 11.6038154,11.4859869 C11.7262373,12.0151833 11.7554516,12.5660817 11.825566,13.1072421" id="Fill-25" fill="#222222"></path>
        </g>
    </g>
</svg>