 <svg width="202px" height="248px" viewBox="95 378 155 191" version="1.1" xmlns="http://www.w3.org/2000/svg" xmlns:xlink="http://www.w3.org/1999/xlink">
            <defs>
                <polygon id="path-1" points="0.000251644553 0.266 153.101602 0.266 153.101602 153.133603 0.000251644553 153.133603 0.000251644553 0.266"></polygon>
            </defs>
            <g stroke="none" stroke-width="1" fill="none" fill-rule="evenodd" transform="translate(95.000000, 378.000000)">
                <g id="Group-3" transform="translate(0.000000, 0.734000)">
                    <mask id="mask-2" fill="white">
                        <use xlink:href="#path-1"></use>
                    </mask>
                    <g id="Clip-2"></g>
                    <path d="M76.5416,6.4536 C37.8416,6.4576 6.2836,37.9686 6.1866,76.5416 C6.0896,115.4096 38.1016,147.0126 76.6156,146.9556 C114.6446,146.8986 146.7846,115.8086 146.7796,76.6826 C146.7756,38.0226 115.1756,6.4496 76.5416,6.4536 M76.5606,0.2656 C118.7236,0.2896 153.1116,34.7906 153.1016,76.9856 C153.0916,117.5746 119.3586,153.1446 76.4636,153.1336 C34.4886,153.1226 -0.1264,118.6586 0.0006,76.4506 C0.1266,34.5146 34.4976,0.2406 76.5606,0.2656" id="Fill-1" fill="#222222" mask="url(#mask-2)"></path>
                </g>
                <path class="explode" d="M51.6103,175.4611 C50.6843,177.6231 49.9553,179.3241 49.1683,181.1611 L54.0833,181.1611 C53.2563,179.2561 52.5253,177.5711 51.6103,175.4611 L51.6103,175.4611 Z M47.1793,185.8261 C46.4423,187.4431 45.7523,188.9571 45.0873,190.4151 L39.8113,190.4151 C40.0963,189.6181 40.2783,189.0041 40.5293,188.4191 C43.1273,182.3831 45.7753,176.3671 48.3133,170.3061 C48.8823,168.9471 49.6253,168.3181 51.0973,168.5291 C51.7423,168.6211 52.4483,168.4151 53.0573,168.5881 C53.6003,168.7421 54.2943,169.1221 54.5003,169.5891 C57.4213,176.2001 60.2723,182.8421 63.1263,189.4841 C63.2323,189.7301 63.1873,190.0401 63.2343,190.5511 C61.7703,190.5511 60.3903,190.6511 59.0383,190.4991 C58.5363,190.4421 57.9383,189.8841 57.6693,189.3971 C57.0413,188.2601 56.5863,187.0291 56.0563,185.8261 L47.1793,185.8261 Z" id="Fill-4" fill="#222222"></path>
                <path class="explode" d="M154.5621,170.9414 C153.6201,172.2474 152.8211,173.3534 151.9841,174.5144 C150.9221,173.9864 150.0591,173.3624 149.1001,173.1274 C147.7811,172.8044 146.3771,172.6024 145.0371,172.7044 C144.4781,172.7474 143.7071,173.6414 143.5611,174.2714 C143.4521,174.7414 144.0581,175.6794 144.5791,175.9344 C145.8081,176.5354 147.1771,176.8524 148.4891,177.2884 C149.3151,177.5624 150.1771,177.7644 150.9561,178.1374 C153.9551,179.5724 155.0751,181.4514 154.8621,184.5384 C154.6651,187.4054 153.0221,189.4644 149.9751,190.2894 C146.1391,191.3274 140.4601,190.6204 137.3021,186.6474 C138.1851,185.5564 139.0901,184.4384 140.1261,183.1584 C140.8851,183.6914 141.5081,184.1604 142.1621,184.5804 C143.7221,185.5814 145.3691,186.3404 147.2921,186.1614 C148.3841,186.0604 149.3211,185.6774 149.5391,184.4624 C149.7511,183.2824 148.9331,182.7234 148.0111,182.3644 C147.0631,181.9954 146.0711,181.7374 145.0951,181.4424 C144.2581,181.1904 143.3921,181.0164 142.5821,180.6994 C139.3121,179.4214 138.1001,177.6664 138.1771,174.4254 C138.2511,171.3094 139.6721,169.2934 142.9781,168.4524 C147.0521,167.4164 150.9071,168.0974 154.5621,170.9414" id="Fill-6" fill="#222222"></path>
                <path class="explode" d="M81.5918,170.9218 C80.8148,172.0408 80.2038,172.9438 79.5638,173.8268 C79.4018,174.0498 79.1518,174.2088 78.9158,174.4198 C77.8108,173.9118 76.7998,173.2878 75.7008,172.9858 C74.6018,172.6848 73.3768,172.4828 72.2788,172.6678 C71.6088,172.7808 70.7758,173.6228 70.5878,174.2968 C70.4638,174.7398 71.2318,175.7498 71.8208,176.0128 C73.2048,176.6298 74.7128,176.9768 76.1828,177.3868 C80.4778,178.5878 82.4248,181.3118 81.7998,185.2008 C81.3148,188.2198 79.3218,189.8818 76.5808,190.4178 C72.8668,191.1448 68.2558,190.8818 64.3268,186.7578 C65.2128,185.6218 66.1258,184.4528 67.1348,183.1598 C67.9188,183.6968 68.5538,184.1468 69.2028,184.5728 C70.8248,185.6368 72.5508,186.3748 74.5498,186.1388 C75.5748,186.0188 76.3858,185.5388 76.5878,184.4598 C76.7838,183.4148 76.1088,182.8178 75.2478,182.4548 C74.5128,182.1458 73.7408,181.9208 72.9758,181.6858 C71.8618,181.3438 70.7108,181.1038 69.6278,180.6858 C66.2958,179.3978 65.1708,177.7458 65.2448,174.4228 C65.3138,171.2838 66.6928,169.3278 70.0298,168.4618 C74.1048,167.4028 77.9488,168.0998 81.5918,170.9218" id="Fill-9" fill="#222222"></path>
                <path class="explode" d="M84.5946,186.6735 C85.5806,185.4845 86.4976,184.3785 87.4756,183.1995 C88.3996,183.8155 89.1176,184.4925 89.9706,184.8195 C91.4376,185.3825 92.9656,185.8705 94.5106,186.1145 C95.5826,186.2835 96.5296,185.6485 96.7646,184.4745 C96.9966,183.3125 96.1696,182.7325 95.2526,182.3645 C94.3086,181.9865 93.3196,181.7225 92.3466,181.4195 C91.5146,181.1605 90.6526,180.9785 89.8456,180.6545 C86.6076,179.3565 85.4226,177.5935 85.5296,174.3385 C85.6316,171.2635 87.1056,169.2325 90.3986,168.4205 C94.3996,167.4345 98.1776,168.1355 101.7396,170.8835 C100.8806,172.1415 100.0906,173.2975 99.2456,174.5345 C98.2886,174.0505 97.5586,173.5125 96.7446,173.3095 C95.3576,172.9615 93.9156,172.6565 92.5016,172.6795 C91.9366,172.6885 91.0316,173.5555 90.9316,174.1435 C90.8376,174.6965 91.4526,175.6945 92.0136,175.9695 C93.3046,176.6005 94.7586,176.8925 96.1356,177.3545 C98.5146,178.1525 100.8756,179.0015 101.7646,181.7135 C103.0516,185.6445 101.0956,189.3775 97.0056,190.3545 C93.1766,191.2685 88.1916,190.6845 84.5946,186.6735" id="Fill-11" fill="#222222"></path>
                <path class="explode" d="M135.2463,172.3451 C134.2573,173.4601 133.3423,174.4901 132.3123,175.6511 C131.6263,175.1031 131.0563,174.5741 130.4163,174.1491 C128.0203,172.5591 125.5333,172.3551 123.0053,173.8271 C120.6733,175.1851 119.5623,177.5861 119.9413,180.3351 C120.3283,183.1361 122.1133,185.1881 124.8503,185.8731 C126.9123,186.3891 128.7333,185.7221 130.4013,184.5421 C130.9263,184.1711 131.4003,183.7291 131.9663,183.2631 C133.0173,184.3721 134.0033,185.4131 134.9993,186.4641 C132.2343,190.7021 126.6843,191.4351 122.3403,190.1611 C117.7233,188.8081 114.7953,184.7981 114.6773,179.8361 C114.5523,174.5531 117.4273,170.1711 122.1283,168.6431 C126.5073,167.2191 132.5073,168.1151 135.2463,172.3451" id="Fill-13" fill="#222222"></path>
                <path class="explode" d="M21.5457,172.3019 C20.5297,173.4319 19.5627,174.5069 18.4847,175.7059 C16.5777,173.8149 14.4787,172.3679 11.8417,172.9809 C10.3577,173.3259 8.7777,174.0909 7.6877,175.1339 C5.4517,177.2739 5.6517,181.6529 7.7947,183.9389 C10.5857,186.9179 13.5267,186.7489 18.3847,183.2319 C19.3907,184.2239 20.4187,185.2359 21.4107,186.2139 C17.9427,191.8059 8.9477,191.7919 4.7657,188.1319 C-0.1073,183.8689 -0.4233,175.8959 4.0797,171.3009 C8.6797,166.6059 17.9097,167.0499 21.5457,172.3019" id="Fill-15" fill="#222222"></path>
                <polygon class="explode" id="Fill-17" fill="#222222" points="25.2223 168.6576 30.1133 168.6576 30.1133 185.9836 39.1743 185.9836 39.1743 190.4206 25.2223 190.4206"></polygon>
                <path class="explode" d="M106.1614,168.6235 L110.7964,168.6235 L110.7964,190.3945 L106.4174,190.3945 C105.7894,189.1405 105.5304,172.5275 106.1614,168.6235" id="Fill-19" fill="#222222"></path>
                <path class="explode" d="M44.5343,79.0022 C47.7973,79.0022 51.0603,79.0372 54.3223,78.9812 C55.3363,78.9642 55.8903,78.2632 55.9313,77.2462 C55.9783,76.0782 55.9753,74.9082 56.0003,73.7392 C56.1973,64.2362 56.4573,54.7342 56.5543,45.2312 C56.5803,42.6402 57.3583,40.5662 59.1453,38.7352 C62.3103,35.4932 65.3993,32.1762 68.5373,28.9072 C68.8833,28.5462 69.3113,28.2232 69.7623,28.0142 C70.9113,27.4822 71.6143,27.8292 71.8423,29.0432 C71.9483,29.6102 71.9133,30.2082 71.9033,30.7922 C71.6293,45.8492 71.3563,60.9072 71.0683,75.9652 C71.0143,78.8052 70.9853,78.8422 73.8723,78.9792 C75.1893,79.0412 75.9803,79.5702 76.0193,80.9162 C76.1133,84.1312 76.2373,87.3472 76.1973,90.5612 C76.1733,92.4522 75.7233,92.7472 73.7563,92.8362 C73.4643,92.8492 73.1703,92.8212 72.8783,92.8372 C70.9933,92.9372 70.6153,93.2952 70.5813,95.2422 C70.4943,100.1392 70.4353,105.0362 70.3853,109.9342 C70.3703,111.3952 70.4303,112.8572 70.4453,114.3192 C70.4593,115.5882 69.9813,116.4632 68.5693,116.4892 C64.7073,116.5602 60.8423,116.7192 56.9843,116.6312 C55.2203,116.5902 54.8793,115.9702 54.8783,113.9742 C54.8753,109.4412 54.9143,104.9082 54.9353,100.3752 C54.9433,98.6212 54.9593,96.8672 54.9543,95.1132 C54.9483,93.2432 54.7453,92.9652 52.8113,92.9312 C49.1593,92.8662 45.5053,92.8562 41.8523,92.9032 C36.5893,92.9722 31.3273,93.1582 26.0643,93.1832 C24.9463,93.1882 23.6903,92.9542 22.7323,92.4152 C19.8613,90.7982 19.2713,88.7142 21.1863,86.0622 C24.8213,81.0292 28.6013,76.0932 32.4783,71.2422 C36.5393,66.1622 40.7803,61.2252 44.9563,56.2372 C45.4713,55.6222 45.9923,54.9582 46.6503,54.5332 C47.3313,54.0932 48.3503,53.5072 48.9113,53.7382 C49.4793,53.9722 49.9503,55.1192 49.9743,55.8812 C50.0723,59.0212 49.7153,62.1922 50.0263,65.3022 C50.4903,69.9422 48.8223,73.5092 45.5103,76.5472 C44.9633,77.0492 44.6353,77.7902 44.2053,78.4212 C44.3153,78.6142 44.4243,78.8082 44.5343,79.0022" id="Fill-21" fill="#222222"></path>
                <path class="explode" d="M111.4743,67.844 C110.4353,67.844 109.8633,67.768 109.3183,67.856 C105.2123,68.522 101.1273,69.353 97.0033,69.872 C92.7033,70.412 90.0483,72.528 89.0793,76.815 C88.7953,78.071 88.3073,79.423 87.4993,80.381 C86.6093,81.434 85.3483,82.383 84.0583,82.845 C81.7953,83.655 80.5473,82.639 80.4903,80.224 C80.4493,78.472 80.6203,76.715 80.5933,74.962 C80.5183,70.067 80.3373,65.173 80.3153,60.278 C80.3093,58.775 80.5333,57.229 80.9233,55.775 C81.3463,54.192 82.5573,53.412 84.2563,53.548 C84.8393,53.595 85.4343,53.585 86.0033,53.701 C94.2803,55.388 102.4453,54.438 110.5473,52.579 C116.7133,51.164 122.9173,50.437 129.2393,50.95 C129.8193,50.997 130.4053,51.067 130.9693,51.204 C133.3423,51.781 134.1733,53.09 133.3383,55.411 C132.7003,57.185 131.8023,58.885 130.8633,60.527 C123.0593,74.172 115.1943,87.781 107.4013,101.431 C103.3513,108.524 100.4573,116.081 98.6293,124.049 C97.8653,127.378 96.7573,128.272 93.2833,128.29 C87.8723,128.318 82.4613,128.288 77.0523,128.193 C76.3623,128.181 75.3123,127.791 75.0963,127.289 C74.8583,126.735 75.2053,125.724 75.6153,125.13 C77.9823,121.701 80.4583,118.347 82.8663,114.945 C84.4283,112.738 86.0403,110.556 87.4483,108.251 C95.1093,95.71 102.7183,83.139 110.3223,70.564 C110.7573,69.845 110.9903,69.004 111.4743,67.844" id="Fill-23" fill="#222222"></path>
                <path class="explode" d="M41.7392,45.2065 C41.8472,48.1685 40.8792,50.5125 38.6822,52.6235 C35.2722,55.9015 32.1472,59.4745 28.9012,62.9225 C28.6012,63.2405 28.3392,63.6085 27.9952,63.8675 C26.9612,64.6485 26.0452,64.3945 25.6212,63.1505 C25.3652,62.3995 25.2342,61.5885 25.1652,60.7955 C24.9482,58.3265 24.8152,55.8505 24.5952,53.3825 C24.4552,51.8085 24.9382,50.4685 26.0702,49.4345 C30.1062,45.7485 34.1412,42.0615 38.2642,38.4745 C39.8072,37.1325 40.4772,37.3675 40.9422,39.3795 C41.3822,41.2815 41.4872,43.2615 41.7392,45.2065" id="Fill-25" fill="#222222"></path>
            </g>
        </svg>